<svg xmlns="http://www.w3.org/2000/svg" data-name="Layer 1" viewBox="0 0 100 125" x="0px" y="0px"><title>Artboard 17</title><path d="M6.24,93.81V76a9,9,0,0,1,3.28-7A135.29,135.29,0,0,1,27.17,56.86,2.55,2.55,0,0,1,30.78,58l12,26.47L47.14,74.1a6.07,6.07,0,1,1,5.73,0L57.2,84.48,69.22,58a2.55,2.55,0,0,1,3.61-1.16A135.08,135.08,0,0,1,90.48,69a9,9,0,0,1,3.28,7V93.82A5.18,5.18,0,0,1,88.58,99H11.43A5.19,5.19,0,0,1,6.24,93.81Zm22.14-70a22.23,22.23,0,0,1,2.22-5.34l-2.5-3.57a3.3,3.3,0,0,1,.37-4.23L31,8.1a3.3,3.3,0,0,1,4.23-.37l3.57,2.5A22.23,22.23,0,0,1,44.18,8l.75-4.29A3.3,3.3,0,0,1,48.18,1h3.64a3.3,3.3,0,0,1,3.25,2.73L55.82,8a22.27,22.27,0,0,1,5.34,2.22l3.57-2.5A3.3,3.3,0,0,1,69,8.1l2.57,2.57a3.3,3.3,0,0,1,.37,4.23l-2.5,3.57a22.22,22.22,0,0,1,2.22,5.34l4.29.75a3.3,3.3,0,0,1,2.73,3.25v3.64a3.3,3.3,0,0,1-2.73,3.25l-4.29.75a22.23,22.23,0,0,1-2.22,5.35l2.5,3.57a3.3,3.3,0,0,1-.37,4.23L69,51.18a3.3,3.3,0,0,1-4.23.37L61.17,49a22.25,22.25,0,0,1-5.34,2.22l-.75,4.29a3.3,3.3,0,0,1-3.25,2.73H48.18a3.3,3.3,0,0,1-3.25-2.73l-.75-4.29A22.23,22.23,0,0,1,38.83,49l-3.57,2.5A3.3,3.3,0,0,1,31,51.18l-2.57-2.57a3.3,3.3,0,0,1-.37-4.23l2.5-3.57a22.24,22.24,0,0,1-2.22-5.35l-4.29-.75a3.3,3.3,0,0,1-2.73-3.25V27.82a3.3,3.3,0,0,1,2.73-3.25Zm11.35,5.82A10.27,10.27,0,1,0,50,19.37,10.27,10.27,0,0,0,39.73,29.64Z"/><text x="0" y="115" fill="#000000" font-size="5px" font-weight="bold" font-family="'Helvetica Neue', Helvetica, Arial-Unicode, Arial, Sans-serif">Created by Gregor Cresnar</text><text x="0" y="120" fill="#000000" font-size="5px" font-weight="bold" font-family="'Helvetica Neue', Helvetica, Arial-Unicode, Arial, Sans-serif">from the Noun Project</text></svg>