<svg xmlns="http://www.w3.org/2000/svg" xmlns:xlink="http://www.w3.org/1999/xlink" version="1.1" x="0px" y="0px" viewBox="0 0 100 125"><path d="M61,679 c112,0,192,-76,192,-181 c0,-128,-130,-155,-139,-280 l-110,0 c7,173,134,184,134,274 c0,44,-31,71,-79,71 c-52,0,-76,-32,-78,-101 l-117,0 c-18,118,71,217,197,217 Z M59,143 c44,-1,81,-36,80,-79 c-1,-43,-36,-79,-80,-79 c-44,0,-80,36,-79,79 c1,44,35,80,79,79 Z M1200,1207 l-1431,-228 c-65,-11,-57,-89,0,-98 l1431,-250 Z M1275,850 l130,0 c53,0,80,-34,80,-68 c0,-34,-27,-68,-80,-68 c-42,0,-60,-21,-60,-50 c0,-29,25,-50,60,-50 c114,0,177,84,177,168 c0,84,-63,168,-177,168 l-130,0 Z M606,630 c-24,-31,3,-87,139,-126 c42,-12,36,-43,2,-43 l-343,0 c-57,0,-57,-79,0,-79 l257,0 c42,0,44,-48,0,-48 l-298,0 c-49,0,-48,-80,0,-80 l298,0 c44,0,42,-47,0,-47 l-264,0 c-56,0,-57,-80,0,-80 l264,0 c43,0,43,-49,0,-49 l-178,0 c-56,0,-55,-78,0,-78 l266,0 c156,0,286,5,451,23 l0,205 c-44,18,-110,18,-110,48 c0,29,66,29,110,47 l0,193 Z M606,630 " fill="#000000" stroke="none" stroke-dasharray="none" stroke-linecap="inherit" stroke-linejoin="inherit" stroke-width="1" transform="matrix(0.05,0.0,0.0,-0.05,20.0,80.0)"/><text x="0" y="115" fill="#000000" font-size="5px" font-weight="bold" font-family="'Helvetica Neue', Helvetica, Arial-Unicode, Arial, Sans-serif">Created by Thomas Helbig</text><text x="0" y="120" fill="#000000" font-size="5px" font-weight="bold" font-family="'Helvetica Neue', Helvetica, Arial-Unicode, Arial, Sans-serif">from the Noun Project</text></svg>