<svg xmlns:dc="http://purl.org/dc/elements/1.1/" xmlns:cc="http://creativecommons.org/ns#" xmlns:rdf="http://www.w3.org/1999/02/22-rdf-syntax-ns#" xmlns:svg="http://www.w3.org/2000/svg" xmlns="http://www.w3.org/2000/svg" xmlns:sodipodi="http://sodipodi.sourceforge.net/DTD/sodipodi-0.dtd" xmlns:inkscape="http://www.inkscape.org/namespaces/inkscape" version="1.1" x="0px" y="0px" viewBox="0 0 100 125"><g transform="translate(0,-952.36218)"><path style="text-indent:0;text-transform:none;direction:ltr;block-progression:tb;baseline-shift:baseline;color:#000000;enable-background:accumulate;" d="m 41.999978,957.36216 c -1.0678,0.007 -1.7216,0.87659 -1.9375,1.53125 l -2.5,10.78125 c -0.6357,0.24116 -1.2555,0.50388 -1.875,0.78125 l -9.375,-5.875 c -0.7587,-0.47219 -1.8358,-0.34949 -2.4687,0.28125 l -11.3126,11.3125 c -0.6455,0.63695 -0.7691,1.73555 -0.2812,2.5 l 5.8438,9.375 c -0.2744,0.61396 -0.5426,1.24515 -0.7813,1.875 l -10.7499998,2.46875 c -0.884,0.19821 -1.5702,1.06288 -1.5625,1.96875 l 0,16.00004 c 0.01,0.8954 0.6887,1.7416 1.5625,1.9375 l 10.7499998,2.4687 c 0.2435,0.6426 0.532,1.2803 0.8125,1.9063 l -5.875,9.375 c -0.4722,0.7587 -0.3495,1.8357 0.2812,2.4687 l 11.3126,11.3125 c 0.6329,0.6308 1.71,0.7535 2.4687,0.2813 l 9.375,-5.875 c 0.6195,0.2774 1.2393,0.5401 1.875,0.7812 l 2.5,10.7813 c 0.1959,0.8738 1.042,1.5561 1.9375,1.5625 l 16,0 c 0.8955,-0.01 1.7416,-0.6887 1.9375,-1.5625 l 2.5,-10.7813 c 0.6357,-0.2411 1.2555,-0.5038 1.875,-0.7812 l 9.375,5.875 c 0.7587,0.4722 1.8358,0.3495 2.4687,-0.2813 l 11.3126,-11.3125 c 0.6307,-0.633 0.7534,-1.71 0.2812,-2.4687 l -5.875,-9.375 c 0.2805,-0.626 0.569,-1.2637 0.8125,-1.9063 l 10.75,-2.4687 c 0.8738,-0.1959 1.5561,-1.0421 1.5625,-1.9375 l 0,-16.00004 c 0.01,-0.90587 -0.6785,-1.77054 -1.5625,-1.96875 l -10.75,-2.46875 c -0.2387,-0.62985 -0.5069,-1.26104 -0.7813,-1.875 l 5.8438,-9.375 c 0.4879,-0.76445 0.3643,-1.86305 -0.2812,-2.5 l -11.3126,-11.3125 c -0.6329,-0.63074 -1.71,-0.75344 -2.4687,-0.28125 l -9.375,5.875 c -0.6195,-0.27737 -1.2393,-0.54009 -1.875,-0.78125 l -2.5,-10.78125 c -0.208,-0.86248 -1.0503,-1.52817 -1.9375,-1.53125 l -16,0 z m 1.5625,4 12.875,0 2.3437,10.21875 c 0.1499,0.65268 0.6501,1.21381 1.2813,1.4375 1.2218,0.41965 2.424,0.91109 3.5625,1.46875 0.6055,0.29843 1.3636,0.26172 1.9375,-0.0937 l 8.9063,-5.5625 9.0624,9.0625 -5.5624,8.90625 c -0.3556,0.57383 -0.3921,1.33194 -0.094,1.9375 0.5577,1.13845 1.0178,2.30931 1.4375,3.53125 0.2203,0.65019 0.798,1.16639 1.4687,1.3125 l 10.2188,2.34375 0,12.84379 -10.2188,2.3437 c -0.6707,0.1461 -1.2484,0.6623 -1.4687,1.3125 -0.4198,1.222 -0.8798,2.3929 -1.4375,3.5313 -0.3096,0.6133 -0.2728,1.3877 0.094,1.9687 l 5.5624,8.875 -9.0624,9.0625 -8.9063,-5.5625 c -0.5739,-0.3554 -1.332,-0.3921 -1.9375,-0.094 -1.1385,0.5577 -2.3407,1.0492 -3.5625,1.4688 -0.6312,0.2237 -1.1314,0.7848 -1.2813,1.4375 l -2.375,10.25 -12.8124,0 -2.375,-10.25 c -0.1499,-0.6527 -0.6501,-1.2138 -1.2813,-1.4375 -1.2218,-0.4196 -2.424,-0.9111 -3.5625,-1.4688 -0.6055,-0.2984 -1.3636,-0.2617 -1.9375,0.094 l -8.9063,5.5625 -9.0624,-9.0625 5.5624,-8.875 c 0.3666,-0.581 0.4034,-1.3554 0.094,-1.9687 -0.5577,-1.1384 -1.0177,-2.3093 -1.4375,-3.5313 -0.2203,-0.6502 -0.798,-1.1664 -1.4687,-1.3125 l -10.2189998,-2.3438 0,-12.84374 10.2187998,-2.34375 c 0.6707,-0.14611 1.2484,-0.66231 1.4687,-1.3125 0.4197,-1.22194 0.8798,-2.3928 1.4375,-3.53125 0.2983,-0.60556 0.2618,-1.36367 -0.094,-1.9375 l -5.5624,-8.90625 9.0624,-9.0625 8.9063,5.5625 c 0.5739,0.35547 1.332,0.39218 1.9375,0.0937 1.1385,-0.55766 2.3407,-1.0491 3.5625,-1.46875 0.6312,-0.22369 1.1314,-0.78482 1.2813,-1.4375 l 2.3439,-10.2187 z m 6.4375,19 c -12.1266,0 -22,9.87332 -22,22.00004 0,12.1265 9.8734,22 22,22 12.1266,0 22,-9.8735 22,-22 0,-12.12671 -9.8734,-22.00004 -22,-22.00004 z m 0,4 c 9.9648,0 18,8.03507 18,18.00004 0,9.9647 -8.0352,18 -18,18 -9.9648,0 -18,-8.0353 -18,-18 0,-9.96498 8.0352,-18.00004 18,-18.00004 z" fill="#000000" fill-opacity="1" stroke="none" marker="none" visibility="visible" display="inline" overflow="visible"/></g><text x="0" y="115" fill="#000000" font-size="5px" font-weight="bold" font-family="'Helvetica Neue', Helvetica, Arial-Unicode, Arial, Sans-serif">Created by unlimicon</text><text x="0" y="120" fill="#000000" font-size="5px" font-weight="bold" font-family="'Helvetica Neue', Helvetica, Arial-Unicode, Arial, Sans-serif">from the Noun Project</text></svg>